<svg width="24" height="24" viewBox="0 0 24 24" fill="none" xmlns="http://www.w3.org/2000/svg">
<g id="atom_primaryicon_arrowleft_outlined">
<path id="Arrow left" d="M10.45 17.26C10.65 17.09 10.76 16.84 10.75 16.58C10.75 16.32 10.63 16.07 10.43 15.9L7.53 13.23H18.97C19.24 13.23 19.5 13.14 19.7 12.96C19.89 12.79 20 12.54 20 12.29C20 12.03 19.9 11.79 19.7 11.61C19.5 11.43 19.24 11.33 18.97 11.34H7.52L10.45 8.63C10.65 8.46 10.76 8.21 10.76 7.95C10.76 7.69 10.65 7.45 10.45 7.28C10.25 7.1 9.99 7 9.71 7C9.44 7 9.18 7.1 8.98 7.28L4.28 11.61C4.18 11.69 4.11 11.8 4.06 11.92C4.02 12.03 4 12.15 4 12.27C4 12.39 4.02 12.51 4.06 12.63C4.11 12.75 4.18 12.85 4.28 12.94L9 17.29C9.19 17.47 9.44 17.56 9.7 17.55C9.97 17.55 10.23 17.45 10.43 17.26H10.45Z" fill="black"/>
</g>
</svg>
